<?xml version="1.0" encoding="utf-8"?>
<!-- Generator: Adobe Illustrator 16.0.0, SVG Export Plug-In . SVG Version: 6.00 Build 0)  -->
<!DOCTYPE svg PUBLIC "-//W3C//DTD SVG 1.1//EN" "http://www.w3.org/Graphics/SVG/1.1/DTD/svg11.dtd">
<svg version="1.1" id="Logo_FIXED" xmlns="http://www.w3.org/2000/svg" xmlns:xlink="http://www.w3.org/1999/xlink" x="0px" y="0px"
	 width="28.347px" height="23.033px" viewBox="291.827 528.399 28.347 23.033"
	 enable-background="new 291.827 528.399 28.347 23.033" xml:space="preserve">
<title>Twitter_Logo_Blue</title>
<path fill="#29ABE2" d="M300.741,551.433c10.696,0,16.548-8.863,16.548-16.547c0-0.253,0-0.502-0.018-0.752
	c1.139-0.823,2.121-1.843,2.902-3.011c-1.062,0.471-2.188,0.778-3.342,0.915c1.216-0.727,2.124-1.87,2.558-3.217
	c-1.142,0.678-2.392,1.155-3.692,1.412c-2.203-2.343-5.888-2.456-8.229-0.253c-1.511,1.42-2.152,3.537-1.683,5.557
	c-4.676-0.234-9.032-2.442-11.986-6.075c-1.543,2.656-0.755,6.056,1.8,7.762c-0.925-0.026-1.83-0.276-2.639-0.727v0.074
	c0,2.768,1.952,5.151,4.666,5.7c-0.856,0.232-1.754,0.268-2.626,0.101c0.762,2.368,2.945,3.991,5.434,4.037
	c-2.059,1.619-4.604,2.497-7.223,2.495c-0.462-0.001-0.925-0.029-1.384-0.085c2.66,1.708,5.754,2.613,8.914,2.609"/>
</svg>
